<?xml version="1.0" encoding="UTF-8"?>
<svg version="1.1" xmlns="http://www.w3.org/2000/svg" width="1366" height="768">
<path d="M0 0 C450.78 0 901.56 0 1366 0 C1366 253.44 1366 506.88 1366 768 C915.22 768 464.44 768 0 768 C0 514.56 0 261.12 0 0 Z " fill="#FEFEFE" transform="translate(0,0)"/>
<path d="M0 0 C18.13846154 0 18.13846154 0 24.25 0.4375 C26.05210937 0.55931641 26.05210937 0.55931641 27.890625 0.68359375 C30.38110042 0.93702153 32.60751518 1.29528294 35 2 C35 2.99 35 3.98 35 5 C24.44 4.67 13.88 4.34 3 4 C3 89.8 3 175.6 3 264 C79.23 264 155.46 264 234 264 C234 177.87 234 91.74 234 3 C225.42 3 216.84 3 208 3 C208 81.21 208 159.42 208 240 C148.27 240 88.54 240 27 240 C27 175.32 27 110.64 27 44 C27.99 44 28.98 44 30 44 C30 107.69 30 171.38 30 237 C87.75 237 145.5 237 205 237 C204.98839844 219.97535156 204.97679687 202.95070313 204.96484375 185.41015625 C204.95973749 174.65950506 204.95488251 163.90885474 204.95117188 153.15820312 C204.94921387 147.51375323 204.94719334 141.86930335 204.94506836 136.22485352 C204.94480461 135.51736861 204.94454086 134.8098837 204.94426912 134.08095986 C204.93991435 122.64432941 204.93202753 111.20770398 204.9228472 99.77107651 C204.91351086 88.04267329 204.90794443 76.3142727 204.90591151 64.58586591 C204.90460395 57.99456156 204.90151529 51.40326857 204.89426994 44.81196785 C204.88751386 38.61592375 204.88538219 32.41989577 204.88689232 26.22384834 C204.8866158 23.94249891 204.88460826 21.66114897 204.88079453 19.3798027 C204.8758637 16.27975732 204.87699944 13.17977381 204.87974548 10.07972717 C204.87537622 8.70670074 204.87537622 8.70670074 204.87091869 7.3059364 C204.88587879 1.11412121 204.88587879 1.11412121 206 0 C215.9 0 225.8 0 236 0 C236 88.11 236 176.22 236 267 C158.12 267 80.24 267 0 267 C0 178.89 0 90.78 0 0 Z " fill="#EAA962" transform="translate(656,270)"/>
<path d="M0 0 C6.6631621 3.76842343 11.36163117 8.89272887 14.625 15.8125 C15.54024719 19.1196561 16.15849852 22.41469819 16.625 25.8125 C18.47351563 25.72548828 18.47351563 25.72548828 20.359375 25.63671875 C31.41674651 25.26862452 41.22768731 25.23829431 50.0234375 32.90234375 C55.75761533 38.95738712 58.72050871 44.45994164 59.0625 52.875 C58.90975073 57.96664235 58.35101572 61.08648428 54.625 64.8125 C49.2375511 67.57739879 44.41670692 68.48878043 38.41796875 68.984375 C37.51402878 69.06395447 36.61008881 69.14353394 35.67875671 69.2255249 C24.64719022 70.09993617 13.60303505 70.11225126 2.54321289 70.07324219 C-1.04102696 70.06256397 -4.62476 70.07318313 -8.20898438 70.0859375 C-24.01311152 70.09404988 -39.6395769 69.27139534 -55.375 67.8125 C-55.705 66.8225 -56.035 65.8325 -56.375 64.8125 C-53.81242289 64.78487941 -51.2501588 64.76537156 -48.6875 64.75 C-47.6346582 64.73743164 -47.6346582 64.73743164 -46.56054688 64.72460938 C-42.21874871 64.70531249 -37.9613731 64.91443776 -33.63671875 65.3046875 C-24.06257918 66.08623571 -14.47461206 66.00986835 -4.875 66 C-3.88709473 65.99972809 -2.89918945 65.99945618 -1.88134766 65.99917603 C10.6401565 65.98334942 23.12764556 65.80762438 35.625 65 C36.79095703 64.92998779 37.95691406 64.85997559 39.15820312 64.7878418 C40.75051758 64.66662964 40.75051758 64.66662964 42.375 64.54296875 C43.27734375 64.47489014 44.1796875 64.40681152 45.109375 64.33666992 C48.11825998 63.70972155 50.12302742 62.578678 52.625 60.8125 C55.04524253 56.77876244 55.28782174 52.40126592 54.625 47.8125 C52.40829023 40.46088025 47.07433474 35.32698642 40.49609375 31.609375 C35.41373404 30.19876088 30.15963908 30.81627813 24.9296875 31.06640625 C20.84542441 31.17003681 18.29326793 31.16403678 14.625 29.234375 C12.1274853 26.21004079 11.47859156 23.75403918 10.625 19.9375 C8.90443324 13.35564939 7.67344524 9.24950527 1.6328125 5.61328125 C-3.76402998 2.79624809 -8.18915524 1.31364155 -14.375 1.8125 C-21.18381666 4.062674 -27.09148776 7.07652093 -30.5625 13.5625 C-31.87407771 16.35740965 -32.69604503 18.98051225 -33.3125 22 C-34.51897268 26.32910786 -35.9102858 28.02382759 -39.375 30.8125 C-42.24201898 31.76817299 -44.07366638 31.93569969 -47.05078125 31.953125 C-47.96150391 31.97246094 -48.87222656 31.99179687 -49.81054688 32.01171875 C-51.71658713 32.04536237 -53.62296152 32.06378586 -55.52929688 32.06640625 C-59.96996597 32.1853248 -63.3504117 32.27959698 -66.91796875 35.109375 C-71.91158107 40.60314245 -71.71472319 44.64919383 -71.375 51.8125 C-71.09694609 55.81836145 -70.75958869 59.81552468 -70.375 63.8125 C-71.365 63.4825 -72.355 63.1525 -73.375 62.8125 C-75.87687696 54.78015817 -77.31145261 45.19129576 -73.6875 37.3125 C-71.15695161 32.99621002 -68.14608602 30.40286201 -63.375 28.8125 C-61.88017537 28.70008362 -60.38148824 28.63486641 -58.8828125 28.6015625 C-57.57763672 28.55902344 -57.57763672 28.55902344 -56.24609375 28.515625 C-54.42337707 28.46376962 -52.60043019 28.41943117 -50.77734375 28.3828125 C-44.04772143 28.19395656 -44.04772143 28.19395656 -38.375 24.8125 C-37.31892995 22.616898 -37.31892995 22.616898 -36.875 20.125 C-34.67986586 11.74690469 -30.50284962 5.76496694 -23.375 0.8125 C-15.81641514 -3.54822204 -7.84020886 -3.70394368 0 0 Z " fill="#EBAF6D" transform="translate(783.375,233.1875)"/>
<path d="M0 0 C-0.56553431 3.49123181 -1.58730832 4.85639245 -4.3125 7.0625 C-17.35285455 17.98000613 -29.41903432 29.66215886 -40 43 C-40.60972656 43.73089844 -41.21945312 44.46179688 -41.84765625 45.21484375 C-51.74363053 57.16985302 -60.77116935 70.1614556 -68.25390625 83.76171875 C-70 86 -70 86 -72.33984375 87.15625 C-76.34648833 86.92091111 -78.31413575 84.53163463 -81 81.8125 C-82.13888822 80.70918653 -83.27822528 79.60633621 -84.41796875 78.50390625 C-85.00239746 77.92914551 -85.58682617 77.35438477 -86.18896484 76.76220703 C-89.17092805 73.86064186 -92.24477429 71.06023763 -95.3125 68.25 C-96.41319641 67.23484753 -97.51349772 66.21926638 -98.61328125 65.203125 C-99.40089844 64.47609375 -100.18851563 63.7490625 -101 63 C-100.67 62.01 -100.34 61.02 -100 60 C-96.51345524 61.4841373 -94.35808928 63.46214052 -91.75 66.1875 C-87.67314499 70.35792217 -83.44088827 74.224346 -79 78 C-77.66662751 79.14578777 -76.33329198 80.29161854 -75 81.4375 C-73.515 82.7059375 -73.515 82.7059375 -72 84 C-71.78472656 83.18789063 -71.56945312 82.37578125 -71.34765625 81.5390625 C-69.62652545 77.01922335 -67.1572539 73.35255062 -64.4375 69.375 C-63.89955811 68.57956787 -63.36161621 67.78413574 -62.80737305 66.96459961 C-53.36283442 53.0917496 -42.98817224 40.07998524 -31.56640625 27.7890625 C-29.42501785 25.46189155 -27.35657371 23.09941385 -25.3125 20.6875 C-22.51636266 17.46830642 -19.51088831 14.68848896 -16.25390625 11.94140625 C-12.52960142 8.73346951 -8.98768603 5.31979876 -5.41796875 1.94140625 C-3 0 -3 0 0 0 Z " fill="#EBAD6A" transform="translate(829,360)"/>
<path d="M0 0 C1.65 0.33 3.3 0.66 5 1 C4.67 2.32 4.34 3.64 4 5 C2.35 4.67 0.7 4.34 -1 4 C-0.67 2.68 -0.34 1.36 0 0 Z " fill="#EBAD6A" transform="translate(773,255)"/>
</svg>
